<svg xmlns="http://www.w3.org/2000/svg" version="1.1" xmlns:xlink="http://www.w3.org/1999/xlink" xmlns:svgjs="http://svgjs.dev/svgjs" width="1500" height="1500" viewBox="0 0 1500 1500"><rect width="1500" height="1500" fill="#000000"></rect><g transform="matrix(0.6666666666666666,0,0,0.6666666666666666,249.39393939393938,666.1674582188094)"><svg viewBox="0 0 396 67" data-background-color="#ffffff" preserveAspectRatio="xMidYMid meet" height="253" width="1500" xmlns="http://www.w3.org/2000/svg" xmlns:xlink="http://www.w3.org/1999/xlink"><g id="tight-bounds" transform="matrix(1,0,0,1,0.2400000000000091,-0.19893103158239)"><svg viewBox="0 0 395.52 67.3978620631648" height="67.3978620631648" width="395.52"><g><svg viewBox="0 0 467.245847092431 79.62017382666427" height="67.3978620631648" width="395.52"><g transform="matrix(1,0,0,1,71.72584709243104,9.487833190023323)"><svg viewBox="0 0 395.52 60.644507446617624" height="60.644507446617624" width="395.52"><g id="textblocktransform"><svg viewBox="0 0 395.52 60.644507446617624" height="60.644507446617624" width="395.52" id="textblock"><g><svg viewBox="0 0 395.52 60.644507446617624" height="60.644507446617624" width="395.52"><g transform="matrix(1,0,0,1,0,0)"><svg width="395.52" viewBox="3.13 -40.82 272.1 41.72" height="60.644507446617624" data-palette-color="#89939e"><path d="M5.03-4.27L9.45-37.7Q7.91-38.21 7.03-38.21L7.03-38.21Q5.71-38.21 4.93-38.07 4.15-37.94 4.08-38.06 4-38.18 4-38.43 4-38.67 4.17-38.94 4.35-39.21 4.59-39.26L4.59-39.26Q8.23-40.09 14.55-40.09L14.55-40.09 26.81-20.07 27.05-20.07 38.77-40.09Q45.09-40.09 48.73-39.26L48.73-39.26Q49.32-39.14 49.32-38.35L49.32-38.35Q49.32-37.92 48.54-38.05 47.75-38.18 46.46-38.18 45.17-38.18 43.7-37.62L43.7-37.62 48.36-4.27Q48.71-1.66 49.95-1.07L49.95-1.07Q50.27-0.93 50.27-0.46 50.27 0 49.95 0L49.95 0 41.82 0Q41.5 0 41.5-0.43 41.5-0.85 41.61-0.94 41.72-1.03 41.92-1.12L41.92-1.12Q42.55-1.39 43.03-2.55 43.51-3.71 43.51-4.14 43.51-4.57 43.48-4.71L43.48-4.71 39.55-33.72 39.43-33.72 27.37-12.62Q27.29-12.5 26.48-12.52 25.66-12.55 25.61-12.62L25.61-12.62 13.04-33.72 12.82-33.72 9.23-4.71Q9.11-3.93 9.55-2.87 9.99-1.81 10.28-1.51 10.57-1.22 10.89-1.07 11.21-0.93 11.21-0.46 11.21 0 10.89 0L10.89 0 3.44 0Q3.13 0 3.13-0.43 3.13-0.85 3.23-0.94 3.34-1.03 3.54-1.12L3.54-1.12Q4.69-1.61 5.03-4.27L5.03-4.27ZM62.77-23.93L78.17-23.93Q79.95-23.93 81.13-25.1L81.13-25.1Q81.22-25.2 81.37-25.51 81.52-25.83 81.98-25.83 82.44-25.83 82.44-25.51L82.44-25.51 82.44-18.43Q82.44-18.12 82.02-18.12 81.59-18.12 81.5-18.23 81.42-18.33 81.33-18.53 81.25-18.73 80.94-19.03 80.64-19.34 79.82-19.65 79-19.97 78.17-19.97L78.17-19.97 62.77-19.97 62.77-3.96 78.98-3.96Q81.74-3.96 82.36-4.43 82.98-4.91 83.24-5.27 83.49-5.64 83.63-5.64 83.76-5.64 84.12-5.52 84.47-5.4 84.47-5.3 84.47-5.2 84.13-4.35L84.13-4.35 83.35-2.37Q82.91-1.25 82.75-0.67 82.59-0.1 82.32 0L82.32 0 56.44 0Q56.13 0 56.13-0.43 56.13-0.85 56.24-0.94 56.35-1.03 56.54-1.11 56.74-1.2 57.04-1.5 57.35-1.81 57.69-2.62 58.03-3.44 58.03-4.27L58.03-4.27 58.03-35.72Q58.03-37.5 56.86-38.67L56.86-38.67Q56.76-38.77 56.44-38.92 56.13-39.06 56.13-39.53 56.13-39.99 56.44-39.99L56.44-39.99 82.32-39.99Q82.57-39.99 82.74-39.37 82.91-38.75 83.35-37.62L83.35-37.62 84.13-35.64Q84.47-34.79 84.47-34.69 84.47-34.59 84.12-34.47 83.76-34.35 83.65-34.35 83.54-34.35 83.42-34.48 83.3-34.62 83.14-34.85 82.98-35.08 82.36-35.56 81.74-36.04 78.98-36.04L78.98-36.04 62.77-36.04 62.77-23.93ZM91.4-4.27L95.82-37.7Q94.28-38.21 93.4-38.21L93.4-38.21Q92.08-38.21 91.3-38.07 90.52-37.94 90.45-38.06 90.38-38.18 90.38-38.43 90.38-38.67 90.55-38.94 90.72-39.21 90.96-39.26L90.96-39.26Q94.6-40.09 100.92-40.09L100.92-40.09 113.18-20.07 113.42-20.07 125.14-40.09Q131.46-40.09 135.1-39.26L135.1-39.26Q135.69-39.14 135.69-38.35L135.69-38.35Q135.69-37.92 134.91-38.05 134.13-38.18 132.83-38.18 131.54-38.18 130.07-37.62L130.07-37.62 134.74-4.27Q135.08-1.66 136.32-1.07L136.32-1.07Q136.64-0.93 136.64-0.46 136.64 0 136.32 0L136.32 0 128.19 0Q127.88 0 127.88-0.43 127.88-0.85 127.99-0.94 128.1-1.03 128.29-1.12L128.29-1.12Q128.93-1.39 129.4-2.55 129.88-3.71 129.88-4.14 129.88-4.57 129.85-4.71L129.85-4.71 125.92-33.72 125.8-33.72 113.74-12.62Q113.67-12.5 112.85-12.52 112.03-12.55 111.98-12.62L111.98-12.62 99.41-33.72 99.19-33.72 95.6-4.71Q95.48-3.93 95.92-2.87 96.36-1.81 96.65-1.51 96.94-1.22 97.26-1.07 97.58-0.93 97.58-0.46 97.58 0 97.26 0L97.26 0 89.81 0Q89.5 0 89.5-0.43 89.5-0.85 89.61-0.94 89.72-1.03 89.91-1.12L89.91-1.12Q91.06-1.61 91.4-4.27L91.4-4.27ZM157.63-4.15L157.63-4.15Q160.03-3.2 162.32-3.2L162.32-3.2Q170.13-3.2 174.76-7.78 179.39-12.35 179.39-20.07L179.39-20.07Q179.39-22.73 178.03-25.66 176.68-28.59 174.41-31.02 172.14-33.45 168.85-35.03 165.57-36.62 161.42-36.62 157.27-36.62 153.58-34.52 149.89-32.42 147.89-28.71 145.89-25 145.89-20.1 145.89-15.21 149.47-10.6 153.04-5.98 157.63-4.15ZM147.4-5.31Q144.67-8.15 143.06-12.07 141.45-15.99 141.45-20.18 141.45-24.37 143.14-28.16 144.84-31.96 147.64-34.73 150.43-37.5 154.23-39.16 158.02-40.82 161.76-40.82 165.5-40.82 168.74-39.84L168.74-39.84Q175.16-37.92 179.45-32.65 183.73-27.39 183.73-20.29L183.73-20.29Q183.73-16.11 182.22-12.3 180.71-8.5 177.98-5.55 175.26-2.61 171.12-0.85 166.98 0.9 162.39 0.9 157.81 0.9 153.97-0.78 150.14-2.47 147.4-5.31ZM200.89-35.99L196.38-35.99Q195.86-35.99 195.5-35.63 195.13-35.28 195.13-34.77L195.13-34.77 195.13-4.27Q195.13-2.49 196.3-1.32L196.3-1.32Q196.4-1.22 196.72-1.07 197.04-0.93 197.04-0.46 197.04 0 196.72 0L196.72 0 188.81 0Q188.49 0 188.49-0.43 188.49-0.85 188.6-0.94 188.71-1.03 188.91-1.11 189.1-1.2 189.41-1.5 189.71-1.81 190.05-2.62 190.4-3.44 190.4-4.27L190.4-4.27 190.4-35.72Q190.4-37.5 189.22-38.67L189.22-38.67Q189.13-38.77 188.81-38.92 188.49-39.06 188.49-39.5 188.49-39.94 188.81-39.94L188.81-39.94 201.33-39.94Q206.7-39.89 210.33-37.63 213.95-35.38 213.95-30.3L213.95-30.3Q213.95-24.32 207.7-21.53L207.7-21.53Q205.41-20.51 204.21-20.4 203.02-20.29 203.02-20.21L203.02-20.21 203.8-19.78Q204.29-19.48 205.8-18.29 207.31-17.09 208.8-15.59 210.29-14.09 212.34-11.43 214.39-8.76 215.37-7.08L215.37-7.08 217.37-3.52Q218.47-1.51 219.2-1.32 219.94-1.12 219.94-0.56 219.94 0 219.62 0L219.62 0 211.71 0Q211.39 0 211.39-0.43 211.39-0.85 211.5-0.94 211.61-1.03 211.81-1.11 212-1.2 212.14-1.34 212.27-1.49 212.26-1.92 212.25-2.34 212.15-2.59L212.15-2.59Q210.37-7.18 207.29-11.33L207.29-11.33Q201.58-19.04 197.45-19.63L197.45-19.63Q196.87-19.73 196.87-19.75L196.87-19.75Q196.82-20.19 196.82-20.95L196.82-20.95 196.82-22.44Q196.82-22.68 197.06-22.68L197.06-22.68Q203.07-22.68 206.44-25.1L206.44-25.1Q209.02-26.93 209.02-30.03 209.02-33.13 206.53-34.56 204.04-35.99 200.89-35.99L200.89-35.99ZM223.67-39.99L223.67-39.99 231.58-39.99Q231.9-39.99 231.9-39.56 231.9-39.14 231.79-39.05 231.68-38.96 231.48-38.88 231.29-38.79 230.98-38.49 230.68-38.18 230.33-37.37 229.99-36.55 229.99-35.72L229.99-35.72 229.99-4.27Q229.99-2.49 231.16-1.32L231.16-1.32Q231.26-1.22 231.58-1.07 231.9-0.93 231.9-0.46 231.9 0 231.58 0L231.58 0 223.67 0Q223.35 0 223.35-0.43 223.35-0.85 223.46-0.94 223.57-1.03 223.77-1.11 223.96-1.2 224.27-1.5 224.57-1.81 224.91-2.62 225.26-3.44 225.26-4.27L225.26-4.27 225.26-35.72Q225.26-37.5 224.08-38.67L224.08-38.67Q223.99-38.77 223.67-38.92 223.35-39.06 223.35-39.53 223.35-39.99 223.67-39.99ZM238-3.74L238-3.74Q238-3.74 254.06-39.7L254.06-39.7Q254.18-39.99 255.26-39.99 256.33-39.99 256.48-39.7L256.48-39.7 273.03-3.74Q273.98-1.51 274.91-1.07L274.91-1.07Q275.23-0.93 275.23-0.46 275.23 0 274.91 0L274.91 0 266.07 0Q265.76 0 265.76-0.43 265.76-0.85 265.87-0.94 265.98-1.03 266.17-1.11 266.37-1.2 266.49-1.32L266.49-1.32Q267.42-2.25 267.42-3.04 267.42-3.83 267.25-4.35L267.25-4.35 263.71-12.72 246.1-12.72 242.64-4.35Q242.47-3.83 242.47-3.56L242.47-3.56 242.47-3.3Q242.47-3.27 242.47-3.25L242.47-3.25Q242.47-2.25 243.39-1.32L243.39-1.32Q243.49-1.22 243.81-1.07 244.13-0.93 244.13-0.46 244.13 0 243.81 0L243.81 0 236.12 0Q235.8 0 235.8-0.43 235.8-0.85 235.91-0.94 236.02-1.03 236.22-1.12L236.22-1.12Q237.02-1.46 238-3.74ZM254.7-31.93L247.84-16.6Q247.79-16.53 247.81-16.42 247.84-16.31 247.91-16.31L247.91-16.31 261.85-16.31Q261.92-16.31 261.95-16.42 261.97-16.53 261.92-16.6L261.92-16.6 254.87-31.93 254.7-31.93Z" opacity="1" transform="matrix(1,0,0,1,0,0)" fill="#ffffff" class="wordmark-text-0" data-fill-palette-color="primary" id="text-0"></path></svg></g></svg></g></svg></g></svg></g><g><svg viewBox="0 0 57.40913435246333 79.62017382666427" height="79.62017382666427" width="57.40913435246333"><g><svg xmlns="http://www.w3.org/2000/svg" xmlns:xlink="http://www.w3.org/1999/xlink" version="1.1" x="0" y="0" viewBox="17.553310653591126 5 64.89337869281775 90" enable-background="new 0 0 100 100" xml:space="preserve" height="79.62017382666427" width="57.40913435246333" class="icon-icon-0" data-fill-palette-color="accent" id="icon-0"><path d="M50 5c-4.4 0-8.7 1.2-12.7 3.6-16.2 9.5-24 35.7-17.4 58.4 5 17 16.8 28 30.1 28 4.4 0 8.7-1.2 12.7-3.6 16.2-9.5 24-35.7 17.4-58.4C75.1 16 63.3 5 50 5zM75.8 63.7L64.3 57l13.1-4.7C77.3 56.2 76.8 60 75.8 63.7zM24.2 36.3L35.7 43l-13.1 4.7C22.7 43.8 23.2 40 24.2 36.3zM52.5 50l9.1-5.3L76.3 50l-14.8 5.3L52.5 50zM38.5 55.3L23.7 50l14.8-5.3 9.1 5.3L38.5 55.3zM75.1 33.8L64 40.3 70.9 24C72.6 26.9 74 30.2 75.1 33.8zM60.4 42.4l-8.3 4.9 3.7-12.8 12.2-10.3L60.4 42.4zM50 45.5l-3.4-11.8L50 14.6l3.4 19.2L50 45.5zM51.7 10.1c2.7 0.3 5.4 1.1 7.9 2.5L55 28.4 51.7 10.1zM45 28.4l-4.6-15.8c2.6-1.4 5.2-2.2 7.9-2.5L45 28.4zM47.9 47.3l-8.3-4.9-7.6-18.2 12.2 10.3L47.9 47.3zM29.1 24L36 40.3l-11.1-6.5C25.9 30.3 27.4 27 29.1 24zM22.5 52.2L35.7 57l-11.5 6.7C23.2 59.9 22.7 56.1 22.5 52.2zM36 59.7L29.1 76c-1.7-2.9-3.1-6.2-4.2-9.8L36 59.7zM39.6 57.6l8.3-4.9-3.7 12.8L31.9 75.8 39.6 57.6zM50 54.5l3.4 11.8L50 85.4l-3.4-19.2L50 54.5zM48.3 89.9c-2.7-0.3-5.4-1.1-7.9-2.5L45 71.6 48.3 89.9zM55 71.6l4.6 15.8c-2.6 1.4-5.2 2.2-7.9 2.5L55 71.6zM52.1 52.7l8.3 4.9 7.6 18.2L55.8 65.5 52.1 52.7zM70.9 76L64 59.7l11.1 6.5C74.1 69.7 72.6 73 70.9 76zM64.3 43l11.5-6.7c1 3.8 1.5 7.6 1.6 11.5L64.3 43zM68.6 20.5l-11.5 9.7 4.8-16.3C64.3 15.6 66.6 17.9 68.6 20.5zM38.2 13.9l4.8 16.3-11.5-9.7C33.4 17.9 35.6 15.7 38.2 13.9zM31.4 79.5l11.5-9.7-4.8 16.3C35.7 84.4 33.4 82.1 31.4 79.5zM61.8 86.1l-4.8-16.3 11.5 9.7C66.6 82.1 64.4 84.3 61.8 86.1z" fill="#ffffff" data-fill-palette-color="accent"></path></svg></g></svg></g></svg></g><defs></defs></svg><rect width="395.52" height="67.3978620631648" fill="none" stroke="none" visibility="hidden"></rect></g></svg></g></svg>